<svg xmlns="http://www.w3.org/2000/svg" width="40" height="27" viewBox="0 0 40 27">
  <g id="Group_80" data-name="Group 80" transform="translate(-281 -768)">
    <g id="Polygon_1" data-name="Polygon 1" transform="translate(310.5 773.5) rotate(90)" fill="red">
      <path d="M 12.66666984558105 14.49999904632568 L 3.333329916000366 14.49999904632568 C 2.801529884338379 14.49999904632568 2.32069993019104 14.22775936126709 2.04709005355835 13.77173900604248 C 1.773489952087402 13.31572914123535 1.759549975395203 12.76334953308105 2.009809970855713 12.29410934448242 L 6.676469802856445 3.544109344482422 C 6.941669940948486 3.046869277954102 7.436450004577637 2.749999284744263 8 2.749999284744263 C 8.563549995422363 2.749999284744263 9.058329582214355 3.046869277954102 9.323539733886719 3.544119358062744 L 13.99018955230713 12.29410934448242 C 14.24044990539551 12.76334953308105 14.2265100479126 13.31572914123535 13.95291042327881 13.77173900604248 C 13.67930030822754 14.22775936126709 13.19847011566162 14.49999904632568 12.66666984558105 14.49999904632568 Z" stroke="none"/>
      <path d="M 8 3.249999046325684 C 7.819600105285645 3.249999046325684 7.372480392456055 3.301589012145996 7.117640495300293 3.779409408569336 L 2.450980186462402 12.52940940856934 C 2.210500717163086 12.98030948638916 2.388250350952148 13.3685188293457 2.47584056854248 13.51449966430664 C 2.563420295715332 13.66046905517578 2.822310447692871 13.99999904632568 3.333330154418945 13.99999904632568 L 12.66667079925537 13.99999904632568 C 13.17769050598145 13.99999904632568 13.43658065795898 13.66046905517578 13.52416038513184 13.51449966430664 C 13.61175060272217 13.3685188293457 13.78950023651123 12.98030948638916 13.54902076721191 12.52940940856934 L 8.882360458374023 3.7794189453125 C 8.627510070800781 3.301589012145996 8.180400848388672 3.249999046325684 8 3.249999046325684 M 7.999997138977051 2.249999046325684 C 8.69411563873291 2.249999046325684 9.388235092163086 2.602939605712891 9.764710426330566 3.308818817138672 L 14.43137073516846 12.05881881713867 C 15.14189052581787 13.39103889465332 14.17651081085205 14.99999904632568 12.66667079925537 14.99999904632568 L 3.333330154418945 14.99999904632568 C 1.823490142822266 14.99999904632568 0.8581104278564453 13.39103889465332 1.568630218505859 12.05881881713867 L 6.23529052734375 3.308818817138672 C 6.611760139465332 2.602939605712891 7.305877685546875 2.249999046325684 7.999997138977051 2.249999046325684 Z" stroke="none" fill="red"/>
    </g>
    <g id="Group_81" data-name="Group 81">
      <g id="Rectangle_810" data-name="Rectangle 810" transform="translate(281 768)" fill="#fff" stroke="red" stroke-width="2">
        <rect width="40" height="27" rx="8" stroke="none"/>
        <rect x="1" y="1" width="38" height="25" rx="7" fill="none"/>
      </g>
      <g id="Polygon_2" data-name="Polygon 2" transform="translate(308.5 774.5) rotate(90)" fill="red">
        <path d="M 10.51792907714844 11 L 3.482069492340088 11 C 2.959629535675049 11 2.70160961151123 10.64897918701172 2.614929437637329 10.49805927276611 C 2.528249502182007 10.34713935852051 2.355049610137939 9.947400093078613 2.61829948425293 9.496129989624023 L 6.136219501495361 3.465399742126465 C 6.397429466247559 3.017619609832764 6.82729959487915 2.969269752502441 6.999999523162842 2.969269752502441 C 7.172699451446533 2.969269752502441 7.602569580078125 3.017619609832764 7.863779544830322 3.465399742126465 L 11.38169956207275 9.496129989624023 C 11.6449499130249 9.947400093078613 11.4717493057251 10.34713935852051 11.38506984710693 10.49805927276611 C 11.29838943481445 10.64897918701172 11.04036998748779 11 10.51792907714844 11 Z" stroke="none"/>
        <path d="M 6.999999523162842 3.969268798828125 L 3.482069969177246 9.999999046325684 L 10.51791954040527 9.999999046325684 L 6.999999523162842 3.969268798828125 M 6.999999523162842 1.969271659851074 C 7.670839309692383 1.969271659851074 8.341679573059082 2.300024032592773 8.727560043334961 2.961528778076172 L 12.24547958374023 8.99225902557373 C 13.02324962615967 10.32556915283203 12.06150913238525 11.99999904632568 10.51792907714844 11.99999904632568 L 3.482069969177246 11.99999904632568 C 1.93848991394043 11.99999904632568 0.9767494201660156 10.32556915283203 1.754519462585449 8.99225902557373 L 5.272439956665039 2.961528778076172 C 5.658319473266602 2.300024032592773 6.329159736633301 1.969271659851074 6.999999523162842 1.969271659851074 Z" stroke="none" fill="red"/>
      </g>
    </g>
  </g>
</svg>
