<svg xmlns="http://www.w3.org/2000/svg" width="40" height="27" viewBox="0 0 40 27">
  <g id="Group_81" data-name="Group 81" transform="translate(-281 -768)">
    <g id="Rectangle_810" data-name="Rectangle 810" transform="translate(281 768)" fill="#fff" stroke="red" stroke-width="1">
      <rect width="40" height="27" rx="8" stroke="none"/>
      <rect x="0.5" y="0.5" width="39" height="26" rx="7.5" fill="none"/>
    </g>
    <g id="Polygon_2" data-name="Polygon 2" transform="translate(310.5 773.5) rotate(90)" fill="red">
      <path d="M 12.66666984558105 14.49999904632568 L 3.333329916000366 14.49999904632568 C 2.801529884338379 14.49999904632568 2.32069993019104 14.22775936126709 2.04709005355835 13.77173900604248 C 1.773489952087402 13.31572914123535 1.759549975395203 12.76334953308105 2.009809970855713 12.29410934448242 L 6.676469802856445 3.544109344482422 C 6.941669940948486 3.046869277954102 7.436439990997314 2.749999284744263 8 2.749999284744263 C 8.563549995422363 2.749999284744263 9.058320045471191 3.046869277954102 9.323519706726074 3.544109344482422 L 13.99018955230713 12.29410934448242 C 14.24044990539551 12.76334953308105 14.2265100479126 13.31572914123535 13.95291042327881 13.77173900604248 C 13.67930030822754 14.22775936126709 13.19847011566162 14.49999904632568 12.66666984558105 14.49999904632568 Z" stroke="none"/>
      <path d="M 7.999990463256836 3.249999046325684 C 7.81959056854248 3.249999046325684 7.372480392456055 3.301589012145996 7.117640495300293 3.779409408569336 L 2.450980186462402 12.52940940856934 C 2.210500717163086 12.98030948638916 2.388250350952148 13.3685188293457 2.47584056854248 13.51449966430664 C 2.563420295715332 13.66046905517578 2.822310447692871 13.99999904632568 3.333330154418945 13.99999904632568 L 12.66667079925537 13.99999904632568 C 13.17769050598145 13.99999904632568 13.43658065795898 13.66046905517578 13.52416038513184 13.51449966430664 C 13.61175060272217 13.3685188293457 13.78950023651123 12.98030948638916 13.54902076721191 12.52940940856934 L 8.882350921630859 3.779409408569336 C 8.627510070800781 3.301589012145996 8.180390357971191 3.249999046325684 7.999990463256836 3.249999046325684 M 7.999995231628418 2.249999046325684 C 8.694112777709961 2.249999046325684 9.388230323791504 2.602939605712891 9.764699935913086 3.308818817138672 L 14.43137073516846 12.05881881713867 C 15.14189052581787 13.39103889465332 14.17651081085205 14.99999904632568 12.66667079925537 14.99999904632568 L 3.333330154418945 14.99999904632568 C 1.823490142822266 14.99999904632568 0.8581104278564453 13.39103889465332 1.568630218505859 12.05881881713867 L 6.23529052734375 3.308818817138672 C 6.611760139465332 2.602939605712891 7.305877685546875 2.249999046325684 7.999995231628418 2.249999046325684 Z" stroke="none" fill="red"/>
    </g>
  </g>
</svg>
