<?xml version="1.0" standalone="no"?>
<!DOCTYPE svg PUBLIC "-//W3C//DTD SVG 20010904//EN"
 "http://www.w3.org/TR/2001/REC-SVG-20010904/DTD/svg10.dtd">
<svg version="1.0" xmlns="http://www.w3.org/2000/svg"
 width="512.000000pt" height="512.000000pt" viewBox="0 0 512.000000 512.000000"
 preserveAspectRatio="xMidYMid meet">

<g transform="translate(0.000000,512.000000) scale(0.100000,-0.100000)"
fill="#000000" stroke="none">
<path d="M2264 5100 c-67 -27 -124 -77 -154 -136 -23 -45 -25 -61 -28 -217 -3
-151 -5 -167 -20 -163 -10 3 -188 55 -397 116 -410 119 -444 125 -476 80 -21
-29 -1059 -3598 -1061 -3648 -3 -71 -101 -39 1856 -607 996 -289 1816 -525
1823 -525 28 0 71 30 81 57 7 15 34 106 61 201 28 95 53 177 56 182 4 6 182
10 471 10 l465 0 24 24 c13 13 26 39 30 57 3 19 4 877 3 1907 l-3 1874 -28 24
-28 24 -1058 0 -1057 0 -70 23 -69 24 -5 254 c-5 279 -8 292 -70 363 -53 59
-121 89 -215 93 -62 2 -91 -1 -131 -17z m205 -189 l31 -29 0 -211 0 -211 -23
5 c-12 3 -65 18 -117 33 l-95 28 -3 164 c-2 109 1 174 9 193 16 38 53 56 115
57 44 0 57 -5 83 -29z m-552 -468 l583 -168 0 -323 0 -324 -29 -29 c-57 -57
-149 -28 -165 52 -3 18 -6 119 -6 226 0 193 0 194 -25 218 -28 29 -79 33 -112
10 -34 -24 -43 -76 -43 -250 0 -260 24 -343 117 -408 60 -43 97 -55 168 -56
111 -1 216 71 255 177 18 48 20 78 20 353 0 281 1 300 18 295 9 -3 469 -136
1022 -297 553 -160 1008 -294 1013 -298 5 -6 -976 -3407 -986 -3418 -2 -1
-748 213 -1658 478 -910 264 -1678 487 -1708 495 -50 15 -53 18 -48 43 5 24
972 3351 982 3379 2 6 8 12 12 12 4 1 270 -75 590 -167z m2901 -455 c1 -109
-1 -198 -5 -198 -15 0 -1348 382 -1363 391 -8 5 289 7 675 6 l690 -2 3 -197z
m-3 -3356 c-3 -9 -89 -12 -380 -12 -206 0 -375 3 -375 8 -1 4 169 592 377
1306 l378 1300 3 -1295 c1 -712 0 -1300 -3 -1307z"/>
</g>
</svg>
